<svg xmlns="http://www.w3.org/2000/svg" viewBox="0 0 40 40">
  <path d="M20 40c11 0 20-9 20-20S31 0 20 0 0 9 0 20s9 20 20 20Zm3.1-24.5c1.7-1.7 1.7-4.5 0-6.2-1.7-1.7-4.5-1.7-6.2 0-1.7 1.7-1.7 4.5 0 6.2l3.1 3.1 3.1-3.1Zm1.4 7.6c1.7 1.7 4.5 1.7 6.2 0 1.7-1.7 1.7-4.5 0-6.2-1.7-1.7-4.5-1.7-6.2 0L21.4 20l3.1 3.1Zm-1.4 7.6c1.7-1.7 1.7-4.5 0-6.2L20 21.4l-3.1 3.1c-1.7 1.7-1.7 4.5 0 6.2 1.7 1.7 4.5 1.7 6.2 0ZM9.3 23.1c-1.7-1.7-1.7-4.5 0-6.2 1.7-1.7 4.5-1.7 6.2 0l3.1 3.1-3.1 3.1c-1.7 1.7-4.5 1.7-6.2 0Z" style="fill:#ff4375;fill-rule:evenodd"/>
</svg>
