<svg xmlns="http://www.w3.org/2000/svg" viewBox="0 0 40 40">
  <path d="M8.6 3.6c-1.4 1-2.7 2.2-3.8 3.5 4.6-.4 10.4.3 17.2 3.7 7.2 3.6 13 3.7 17.1 3-.4-1.1-.8-2.2-1.4-3.2-4.6.5-10.6-.2-17.5-3.6-4.4-2.2-8.3-3.1-11.6-3.3Zm26.3 3.1C31.2 2.6 25.9 0 20 0s-3.4.2-5 .6c2.2.6 4.5 1.5 6.9 2.7 5.1 2.5 9.5 3.4 13 3.3Zm5 10.9c-4.9 1-11.7.8-19.8-3.3-7.6-3.8-13.6-3.7-17.7-2.8-.2 0-.4 0-.6.1-.5 1.2-1 2.4-1.3 3.6.3 0 .7-.2 1-.2 4.9-1.1 11.9-1 20.3 3.2 7.6 3.8 13.6 3.7 17.7 2.8h.4v-1c0-.8 0-1.6-.1-2.4Zm-.6 7.6c-4.8.8-11.4.5-19.2-3.4C12.5 18 6.5 18.1 2.4 19c-.9.2-1.7.4-2.4.7v.3c0 11 9 20 20 20s17-6.3 19.3-14.8Z" style="fill:#7f57f1;fill-rule:evenodd"/>
</svg>
