<svg xmlns="http://www.w3.org/2000/svg" viewBox="0 0 160 32">
  <defs>
    <linearGradient id="linear-gradient" x1="38.8" y1="26.2" x2="7.8" y2="26.2" gradientTransform="matrix(1 0 0 -1 0 34)" gradientUnits="userSpaceOnUse">
      <stop offset="0" stop-color="#73e5e2"/>
      <stop offset="1" stop-color="#394f87"/>
    </linearGradient>
    <linearGradient id="linear-gradient-2" x1="0" y1="10.7" x2="31" y2="10.7" gradientTransform="matrix(1 0 0 -1 0 34)" gradientUnits="userSpaceOnUse">
      <stop offset="0" stop-color="#fbdc8e"/>
      <stop offset="1" stop-color="#fb958e"/>
    </linearGradient>
    <style>
      .cls-3{fill:#fff}
    </style>
  </defs>
  <g id="logo-45">
    <path class="cls-3" d="M48.1 24.2V8h3.1v13.5h7.4v2.8H48.1ZM65.2 24.6c-1.1 0-2.2-.2-3.1-.7-.9-.5-1.6-1.1-2.2-2-.5-.9-.8-1.9-.8-3.2v-.4c0-1.2.3-2.3.8-3.2s1.2-1.6 2.2-2c.9-.5 1.9-.7 3.1-.7s2.2.2 3.1.7c.9.5 1.6 1.1 2.2 2 .5.9.8 1.9.8 3.2v.4c0 1.2-.3 2.3-.8 3.2-.5.9-1.2 1.6-2.2 2-.9.5-1.9.7-3.1.7Zm0-2.6c.9 0 1.6-.3 2.2-.9.6-.6.9-1.4.9-2.5v-.2c0-1.1-.3-1.9-.9-2.5-.6-.6-1.3-.9-2.2-.9s-1.6.3-2.2.9c-.6.6-.9 1.4-.9 2.5v.2c0 1.1.3 1.9.9 2.5.6.6 1.3.9 2.2.9ZM72.4 18.5v-.4c0-1.2.2-2.2.7-3.1.5-.9 1.1-1.5 1.9-2 .8-.5 1.7-.7 2.6-.7s1.9.2 2.4.6c.5.4.9.8 1.2 1.2h.4v-1.4h2.9v13.6c0 .8-.2 1.4-.7 1.9-.5.5-1.1.7-1.9.7h-7.7v-2.6h6.7c.4 0 .7-.2.7-.7v-3h-.4c-.2.2-.4.5-.7.8-.3.2-.7.5-1.1.6-.5.2-1.1.3-1.8.3s-1.8-.2-2.6-.7c-.8-.5-1.4-1.1-1.9-2-.5-.9-.7-1.9-.7-3.1Zm6.1 3.2c.9 0 1.7-.3 2.3-.9.6-.6.9-1.4.9-2.4v-.2c0-1.1-.3-1.9-.9-2.4-.6-.6-1.3-.9-2.3-.9s-1.7.3-2.3.9c-.6.6-.9 1.4-.9 2.4v.2c0 1 .3 1.8.9 2.4.6.6 1.4.9 2.3.9ZM92.2 24.6c-1.1 0-2.2-.2-3.1-.7-.9-.5-1.6-1.1-2.2-2-.5-.9-.8-1.9-.8-3.2v-.4c0-1.2.3-2.3.8-3.2s1.2-1.6 2.2-2c.9-.5 1.9-.7 3.1-.7s2.2.2 3.1.7c.9.5 1.6 1.1 2.2 2 .5.9.8 1.9.8 3.2v.4c0 1.2-.3 2.3-.8 3.2-.5.9-1.2 1.6-2.2 2-.9.5-1.9.7-3.1.7Zm0-2.6c.9 0 1.6-.3 2.2-.9.6-.6.9-1.4.9-2.5v-.2c0-1.1-.3-1.9-.9-2.5-.6-.6-1.3-.9-2.2-.9s-1.6.3-2.2.9c-.6.6-.9 1.4-.9 2.5v.2c0 1.1.3 1.9.9 2.5.6.6 1.3.9 2.2.9ZM99.9 24.2V12.7h2.9v11.5h-2.9Zm1.5-12.9c-.5 0-1-.2-1.3-.5-.4-.3-.5-.8-.5-1.3s.2-1 .5-1.3c.4-.3.8-.5 1.3-.5s1 .2 1.3.5c.4.3.5.8.5 1.3s-.2 1-.5 1.3c-.4.3-.8.5-1.3.5ZM105.1 28.9V12.7h2.9v1.4h.4c.3-.4.7-.8 1.2-1.2.6-.4 1.4-.5 2.4-.5s1.8.2 2.6.7c.8.4 1.4 1.1 1.9 2 .5.9.7 2 .7 3.2v.4c0 1.3-.2 2.3-.7 3.2-.5.9-1.1 1.6-1.9 2-.8.4-1.7.7-2.6.7s-1.3 0-1.8-.3c-.5-.2-.8-.4-1.1-.6-.3-.3-.5-.5-.7-.8h-.4v6h-2.9Zm6-6.9c.9 0 1.7-.3 2.3-.9.6-.6.9-1.4.9-2.6v-.2c0-1.1-.3-2-.9-2.5-.6-.6-1.4-.9-2.3-.9s-1.7.3-2.3.9c-.6.6-.9 1.4-.9 2.5v.2c0 1.1.3 2 .9 2.6.6.6 1.4.9 2.3.9ZM123.6 24.6c-1.5 0-2.7-.3-3.7-1s-1.5-1.6-1.7-2.8l2.7-.7c.1.5.3 1 .5 1.3.3.3.6.5 1 .7.4.1.8.2 1.3.2.7 0 1.2-.1 1.5-.3.3-.2.5-.6.5-.9s-.2-.6-.5-.8c-.3-.2-.8-.4-1.5-.5h-.7c-.8-.3-1.5-.5-2.2-.7a5 5 0 0 1-1.6-1.1c-.4-.5-.6-1.1-.6-1.9 0-1.1.4-2 1.3-2.6.8-.6 1.9-.9 3.3-.9s2.4.3 3.2.9c.9.6 1.4 1.3 1.7 2.3l-2.7.8c-.1-.6-.4-1-.8-1.3-.4-.2-.8-.4-1.4-.4s-1 .1-1.3.3c-.3.2-.4.4-.4.8s.2.7.5.8c.3.2.7.3 1.3.4h.7c.9.3 1.7.5 2.4.7.7.2 1.3.6 1.7 1.1.4.5.6 1.1.6 1.9 0 1.2-.4 2.1-1.3 2.8-.9.7-2 1-3.5 1ZM134.4 24.4c-.9 0-1.7-.2-2.4-.6-.7-.4-1.2-1-1.6-1.7-.4-.7-.6-1.6-.6-2.5v-6.9h2.9v6.7c0 .9.2 1.5.6 2 .4.4 1 .7 1.8.7s1.6-.3 2.1-.9c.5-.6.7-1.4.7-2.5v-5.9h2.9v11.5h-2.9v-1.5h-.4c-.2.4-.5.8-1 1.1-.5.4-1.3.6-2.3.6ZM143.3 24.2V12.7h2.9V14h.4c.2-.4.5-.7 1-1 .5-.3 1.1-.4 1.8-.4s1.5.2 2 .5.9.7 1.1 1.2h.4c.3-.5.6-.9 1.1-1.2.5-.3 1.2-.5 2-.5s1.4.2 1.9.5c.6.3 1.1.8 1.4 1.4.4.6.5 1.4.5 2.3v7.6h-2.9V17c0-.6-.2-1.1-.5-1.4-.3-.3-.8-.5-1.4-.5s-1.2.2-1.6.7c-.4.4-.5 1-.5 1.8v6.8H150V17c0-.6-.2-1.1-.5-1.4-.3-.3-.8-.5-1.4-.5s-1.2.2-1.6.7c-.4.4-.5 1-.5 1.8v6.8h-2.9Z"/>
    <path d="M38.8 15.5c0-4.1-1.6-8.1-4.5-11-3-2.9-6.9-4.5-11-4.5s-8.1 1.6-11 4.5c-2.9 2.9-4.5 6.9-4.5 11h4.8c1.6 0 2.9-1.3 3.4-2.8.4-1 1-1.9 1.7-2.6 1.5-1.5 3.4-2.3 5.5-2.3s4 .8 5.5 2.3c1.5 1.5 2.3 3.4 2.3 5.5h7.8Z" style="fill:url(#linear-gradient)"/>
    <path d="M29.8 21.4c.8-1.9 1.2-3.9 1.2-5.9h7.8c0 8.6-6.9 15.5-15.5 15.5s-2.6-.2-3.9-.5c.7-.2 1.4-.4 2.1-.7 1.9-.8 3.6-1.9 5-3.4s2.6-3.2 3.4-5Z" style="fill:#fbcf8e"/>
    <path d="M0 15.5c0 2 .4 4.1 1.2 5.9.8 1.9 1.9 3.6 3.4 5 1.4 1.4 3.2 2.6 5 3.4 1.9.8 3.9 1.2 5.9 1.2s4.1-.4 5.9-1.2c1.9-.8 3.6-1.9 5-3.4 1.4-1.4 2.6-3.2 3.4-5 .8-1.9 1.2-3.9 1.2-5.9h-4.8c-1.6 0-2.9 1.3-3.4 2.8v.1c-.4.9-1 1.8-1.7 2.5s-1.6 1.3-2.5 1.7c-.9.4-1.9.6-3 .6s-2-.2-3-.6c-.9-.4-1.8-1-2.5-1.7s-1.3-1.6-1.7-2.5c-.4-.9-.6-1.9-.6-3H0Z" style="fill:url(#linear-gradient-2)"/>
    <path d="M0 15.5C0 6.9 6.9 0 15.5 0s2.6.2 3.9.5c-2.7.7-5.1 2.1-7.1 4.1-2.9 2.9-4.5 6.9-4.5 11H0Z" style="fill:#73e5e2"/>
  </g>
</svg>
